<svg width="17" height="20" viewBox="0 0 17 20" fill="none" xmlns="http://www.w3.org/2000/svg">
<path d="M8.5 7C9.81152 13.2771 7.59865 18.0438 6.78326 19.521C6.6675 19.7307 6.82072 20 7.06027 20H9.28188C9.41192 20 9.52784 19.9147 9.56691 19.7906C11.3588 14.101 10.494 10.0648 10 8M12.9027 5.30044C12.6388 5.23608 12.464 5.53861 12.6024 5.77235C12.6118 5.78818 12.621 5.80407 12.63 5.82C13.9939 7.98152 14.0537 10.5947 13.0071 12.7361C12.8579 13.0414 12.4266 12.8321 12.472 12.4954C12.6863 10.9054 12.3697 9.23283 11.45 7.77C11.37 7.64 11.28 7.53 11.2 7.41C10.6378 6.61915 9.9304 5.98265 9.15557 5.50048C9.08249 5.455 8.99276 5.44472 8.91128 5.47247C6.09823 6.4306 4.08 9.08757 4.08 12.22C4.08 12.3307 4.08246 12.4406 4.08731 12.5499C4.10236 12.8887 3.65369 13.058 3.53186 12.7415C3.22653 11.9482 3.06 11.0878 3.06 10.19C3.06 8.12904 3.93682 6.27574 5.33295 4.97413C5.53602 4.78481 5.4245 4.43387 5.14703 4.44329C3.94329 4.48414 2.71488 4.82183 1.62 5.5C1.53296 5.55756 1.44749 5.61631 1.3636 5.67623C1.08681 5.87396 0.705874 5.58477 0.910304 5.31289C1.41751 4.63835 2.0506 4.0427 2.8 3.57C4.08371 2.76554 5.51389 2.4225 6.92759 2.49073C7.19338 2.50355 7.3675 2.20174 7.19165 2.00203C6.87954 1.64758 6.52662 1.31068 6.13 1C6.05585 0.946305 5.98088 0.893917 5.90514 0.842878C5.6228 0.652632 5.75915 0.189226 6.08608 0.284224C6.89005 0.517839 7.66456 0.896621 8.37 1.43C8.95339 1.86523 9.42531 2.38621 9.80957 2.93736C9.86694 3.01964 9.96026 3.0694 10.0604 3.06419C10.1028 3.06199 10.1454 3.06 10.19 3.06C12.7241 3.06 14.9509 4.38321 16.2149 6.37907C16.3975 6.66732 15.9874 6.92544 15.7239 6.70873C14.9131 6.04207 13.9535 5.55675 12.9027 5.30044Z" fill="white"/>
</svg>
